<svg width="25" height="24" viewBox="0 0 25 24" fill="none" xmlns="http://www.w3.org/2000/svg">
<path d="M9.5 21V13.6C9.5 13.04 9.5 12.7599 9.60899 12.546C9.70487 12.3579 9.85785 12.2049 10.046 12.109C10.2599 12 10.5399 12 11.1 12H13.9C14.4601 12 14.7401 12 14.954 12.109C15.1422 12.2049 15.2951 12.3579 15.391 12.546C15.5 12.7599 15.5 13.04 15.5 13.6V21M11.5177 2.76403L4.73539 8.03916C4.28202 8.39178 4.05534 8.56809 3.89203 8.78889C3.74737 8.98447 3.6396 9.20481 3.57403 9.43908C3.5 9.70355 3.5 9.99073 3.5 10.5651V17.8C3.5 18.9201 3.5 19.4802 3.71799 19.908C3.90973 20.2843 4.21569 20.5903 4.59202 20.782C5.01984 21 5.57989 21 6.7 21H18.3C19.4201 21 19.9802 21 20.408 20.782C20.7843 20.5903 21.0903 20.2843 21.282 19.908C21.5 19.4802 21.5 18.9201 21.5 17.8V10.5651C21.5 9.99073 21.5 9.70355 21.426 9.43908C21.3604 9.20481 21.2526 8.98447 21.108 8.78889C20.9447 8.56809 20.718 8.39178 20.2646 8.03916L13.4823 2.76403C13.131 2.49078 12.9553 2.35415 12.7613 2.30163C12.5902 2.25529 12.4098 2.25529 12.2387 2.30163C12.0447 2.35415 11.869 2.49078 11.5177 2.76403Z" stroke="#6A7381" stroke-width="2" stroke-linecap="round" stroke-linejoin="round"/>
</svg>
