<svg width="12" height="12" viewBox="0 0 12 12" fill="none" xmlns="http://www.w3.org/2000/svg">
<g clip-path="url(#clip0_386_1219)">
<path d="M9 1L11 3M1 11L1.6382 8.65993C1.67984 8.50726 1.70066 8.43093 1.73262 8.35974C1.76099 8.29654 1.79586 8.23645 1.83666 8.18046C1.88261 8.11739 1.93856 8.06144 2.05045 7.94955L7.21716 2.78284C7.31616 2.68384 7.36566 2.63434 7.42275 2.61579C7.47296 2.59947 7.52704 2.59947 7.57725 2.61579C7.63434 2.63434 7.68384 2.68384 7.78284 2.78284L9.21716 4.21716C9.31616 4.31616 9.36566 4.36566 9.38421 4.42275C9.40053 4.47296 9.40053 4.52704 9.38421 4.57725C9.36566 4.63434 9.31616 4.68384 9.21716 4.78284L4.05045 9.94955C3.93856 10.0614 3.88261 10.1174 3.81954 10.1633C3.76355 10.2041 3.70346 10.239 3.64026 10.2674C3.56907 10.2993 3.49274 10.3202 3.34007 10.3618L1 11Z" stroke="white" stroke-width="2" stroke-linecap="round" stroke-linejoin="round"/>
</g>
<defs>
<clipPath id="clip0_386_1219">
<rect width="12" height="12" fill="white"/>
</clipPath>
</defs>
</svg>
