<svg width="13" height="14" viewBox="0 0 13 14" fill="none" xmlns="http://www.w3.org/2000/svg">
<path d="M3.375 1.375V3.5C3.375 3.85003 3.375 4.02505 3.44312 4.15874C3.50304 4.27635 3.59865 4.37196 3.71626 4.43188C3.84995 4.5 4.02497 4.5 4.375 4.5H8.625C8.97503 4.5 9.15005 4.5 9.28374 4.43188C9.40135 4.37196 9.49696 4.27635 9.55688 4.15874C9.625 4.02505 9.625 3.85003 9.625 3.5V2M9.625 12.625V8.625C9.625 8.27497 9.625 8.09995 9.55688 7.96626C9.49696 7.84865 9.40135 7.75304 9.28374 7.69312C9.15005 7.625 8.97503 7.625 8.625 7.625H4.375C4.02497 7.625 3.84995 7.625 3.71626 7.69312C3.59865 7.75304 3.50304 7.84865 3.44312 7.96626C3.375 8.09995 3.375 8.27497 3.375 8.625V12.625M12.125 5.32843V9.625C12.125 10.6751 12.125 11.2001 11.9206 11.6012C11.7409 11.954 11.454 12.2409 11.1012 12.4206C10.7001 12.625 10.1751 12.625 9.125 12.625H3.875C2.8249 12.625 2.29985 12.625 1.89877 12.4206C1.54596 12.2409 1.25913 11.954 1.07936 11.6012C0.875 11.2001 0.875 10.6751 0.875 9.625V4.375C0.875 3.3249 0.875 2.79985 1.07936 2.39877C1.25913 2.04596 1.54596 1.75913 1.89877 1.57936C2.29985 1.375 2.8249 1.375 3.875 1.375H8.17157C8.47731 1.375 8.63018 1.375 8.77404 1.40954C8.90159 1.44016 9.02352 1.49066 9.13536 1.5592C9.2615 1.6365 9.3696 1.7446 9.58579 1.96079L11.5392 3.91421C11.7554 4.1304 11.8635 4.2385 11.9408 4.36464C12.0093 4.47648 12.0598 4.59842 12.0905 4.72596C12.125 4.86982 12.125 5.02269 12.125 5.32843Z" stroke="white" stroke-linecap="round" stroke-linejoin="round"/>
</svg>
