<svg width="32" height="32" viewBox="0 0 32 32" fill="none" xmlns="http://www.w3.org/2000/svg">
<rect width="32" height="32" rx="4" fill="#4945FF"/>
<path d="M7 12L19 12M19 12C19 13.6569 20.3431 15 22 15C23.6569 15 25 13.6569 25 12C25 10.3431 23.6569 9 22 9C20.3431 9 19 10.3431 19 12ZM13 20L25 20M13 20C13 21.6569 11.6569 23 10 23C8.34315 23 7 21.6569 7 20C7 18.3431 8.34315 17 10 17C11.6569 17 13 18.3431 13 20Z" stroke="white" stroke-width="2" stroke-linecap="round" stroke-linejoin="round"/>
</svg>
