<svg width="25" height="24" viewBox="0 0 25 24" fill="none" xmlns="http://www.w3.org/2000/svg">
<path d="M12.5 15C14.1569 15 15.5 13.6569 15.5 12C15.5 10.3431 14.1569 9 12.5 9C10.8431 9 9.5 10.3431 9.5 12C9.5 13.6569 10.8431 15 12.5 15Z" stroke="#6A7381" stroke-width="2" stroke-linecap="round" stroke-linejoin="round"/>
<path d="M19.2273 14.7273C19.1063 15.0015 19.0702 15.3056 19.1236 15.6005C19.1771 15.8954 19.3177 16.1676 19.5273 16.3818L19.5818 16.4364C19.7509 16.6052 19.885 16.8057 19.9765 17.0265C20.068 17.2472 20.1151 17.4838 20.1151 17.7227C20.1151 17.9617 20.068 18.1983 19.9765 18.419C19.885 18.6397 19.7509 18.8402 19.5818 19.0091C19.413 19.1781 19.2124 19.3122 18.9917 19.4037C18.771 19.4952 18.5344 19.5423 18.2955 19.5423C18.0565 19.5423 17.8199 19.4952 17.5992 19.4037C17.3785 19.3122 17.178 19.1781 17.0091 19.0091L16.9545 18.9545C16.7403 18.745 16.4682 18.6044 16.1733 18.5509C15.8784 18.4974 15.5742 18.5335 15.3 18.6545C15.0311 18.7698 14.8018 18.9611 14.6403 19.205C14.4788 19.4489 14.3921 19.7347 14.3909 20.0273V20.1818C14.3909 20.664 14.1994 21.1265 13.8584 21.4675C13.5174 21.8084 13.0549 22 12.5727 22C12.0905 22 11.6281 21.8084 11.2871 21.4675C10.9461 21.1265 10.7545 20.664 10.7545 20.1818V20.1C10.7475 19.7991 10.6501 19.5073 10.475 19.2625C10.2999 19.0176 10.0552 18.8312 9.77273 18.7273C9.49853 18.6063 9.19437 18.5702 8.89947 18.6236C8.60456 18.6771 8.33244 18.8177 8.11818 19.0273L8.06364 19.0818C7.89478 19.2509 7.69425 19.385 7.47353 19.4765C7.2528 19.568 7.01621 19.6151 6.77727 19.6151C6.53834 19.6151 6.30174 19.568 6.08102 19.4765C5.86029 19.385 5.65977 19.2509 5.49091 19.0818C5.32186 18.913 5.18775 18.7124 5.09626 18.4917C5.00476 18.271 4.95766 18.0344 4.95766 17.7955C4.95766 17.5565 5.00476 17.3199 5.09626 17.0992C5.18775 16.8785 5.32186 16.678 5.49091 16.5091L5.54545 16.4545C5.75503 16.2403 5.89562 15.9682 5.9491 15.6733C6.00257 15.3784 5.96647 15.0742 5.84545 14.8C5.73022 14.5311 5.53887 14.3018 5.29497 14.1403C5.05107 13.9788 4.76526 13.8921 4.47273 13.8909H4.31818C3.83597 13.8909 3.37351 13.6994 3.03253 13.3584C2.69156 13.0174 2.5 12.5549 2.5 12.0727C2.5 11.5905 2.69156 11.1281 3.03253 10.7871C3.37351 10.4461 3.83597 10.2545 4.31818 10.2545H4.4C4.7009 10.2475 4.99273 10.1501 5.23754 9.97501C5.48236 9.79991 5.66883 9.55521 5.77273 9.27273C5.89374 8.99853 5.92984 8.69437 5.87637 8.39947C5.8229 8.10456 5.68231 7.83244 5.47273 7.61818L5.41818 7.56364C5.24913 7.39478 5.11503 7.19425 5.02353 6.97353C4.93203 6.7528 4.88493 6.51621 4.88493 6.27727C4.88493 6.03834 4.93203 5.80174 5.02353 5.58102C5.11503 5.36029 5.24913 5.15977 5.41818 4.99091C5.58704 4.82186 5.78757 4.68775 6.00829 4.59626C6.22901 4.50476 6.46561 4.45766 6.70455 4.45766C6.94348 4.45766 7.18008 4.50476 7.4008 4.59626C7.62152 4.68775 7.82205 4.82186 7.99091 4.99091L8.04545 5.04545C8.25971 5.25503 8.53183 5.39562 8.82674 5.4491C9.12164 5.50257 9.4258 5.46647 9.7 5.34545H9.77273C10.0416 5.23022 10.2709 5.03887 10.4324 4.79497C10.594 4.55107 10.6807 4.26526 10.6818 3.97273V3.81818C10.6818 3.33597 10.8734 2.87351 11.2144 2.53253C11.5553 2.19156 12.0178 2 12.5 2C12.9822 2 13.4447 2.19156 13.7856 2.53253C14.1266 2.87351 14.3182 3.33597 14.3182 3.81818V3.9C14.3193 4.19253 14.406 4.47834 14.5676 4.72224C14.7291 4.96614 14.9584 5.15749 15.2273 5.27273C15.5015 5.39374 15.8056 5.42984 16.1005 5.37637C16.3954 5.3229 16.6676 5.18231 16.8818 4.97273L16.9364 4.91818C17.1052 4.74913 17.3057 4.61503 17.5265 4.52353C17.7472 4.43203 17.9838 4.38493 18.2227 4.38493C18.4617 4.38493 18.6983 4.43203 18.919 4.52353C19.1397 4.61503 19.3402 4.74913 19.5091 4.91818C19.6781 5.08704 19.8122 5.28757 19.9037 5.50829C19.9952 5.72901 20.0423 5.96561 20.0423 6.20455C20.0423 6.44348 19.9952 6.68008 19.9037 6.9008C19.8122 7.12152 19.6781 7.32205 19.5091 7.49091L19.4545 7.54545C19.245 7.75971 19.1044 8.03183 19.0509 8.32674C18.9974 8.62164 19.0335 8.9258 19.1545 9.2V9.27273C19.2698 9.54161 19.4611 9.77093 19.705 9.93245C19.9489 10.094 20.2347 10.1807 20.5273 10.1818H20.6818C21.164 10.1818 21.6265 10.3734 21.9675 10.7144C22.3084 11.0553 22.5 11.5178 22.5 12C22.5 12.4822 22.3084 12.9447 21.9675 13.2856C21.6265 13.6266 21.164 13.8182 20.6818 13.8182H20.6C20.3075 13.8193 20.0217 13.906 19.7778 14.0676C19.5339 14.2291 19.3425 14.4584 19.2273 14.7273Z" stroke="#6A7381" stroke-width="2" stroke-linecap="round" stroke-linejoin="round"/>
</svg>
