<svg width="20" height="23" viewBox="0 0 20 23" fill="none" xmlns="http://www.w3.org/2000/svg">
<path d="M14 5.5V4.7C14 3.5799 14 3.01984 13.782 2.59202C13.5903 2.21569 13.2843 1.90973 12.908 1.71799C12.4802 1.5 11.9201 1.5 10.8 1.5H9.2C8.07989 1.5 7.51984 1.5 7.09202 1.71799C6.71569 1.90973 6.40973 2.21569 6.21799 2.59202C6 3.01984 6 3.5799 6 4.7V5.5M1 5.5H19M17 5.5V16.7C17 18.3802 17 19.2202 16.673 19.862C16.3854 20.4265 15.9265 20.8854 15.362 21.173C14.7202 21.5 13.8802 21.5 12.2 21.5H7.8C6.11984 21.5 5.27976 21.5 4.63803 21.173C4.07354 20.8854 3.6146 20.4265 3.32698 19.862C3 19.2202 3 18.3802 3 16.7V5.5" stroke="white" stroke-width="2" stroke-linecap="round" stroke-linejoin="round"/>
</svg>
