<svg width="24" height="24" viewBox="0 0 24 24" fill="none" xmlns="http://www.w3.org/2000/svg">
<path d="M7.54752 21.7507C16.6042 21.7507 21.5578 14.2473 21.5578 7.74044C21.5578 7.52732 21.5578 7.31517 21.5434 7.10396C22.507 6.40692 23.3389 5.54385 24 4.55516C23.1014 4.95357 22.148 5.21472 21.1718 5.32988C22.1998 4.71457 22.9692 3.74667 23.3366 2.60636C22.3701 3.17997 21.3126 3.58419 20.2099 3.80156C19.4675 3.01214 18.4856 2.48941 17.4162 2.31425C16.3468 2.13909 15.2494 2.32128 14.294 2.83262C13.3385 3.34396 12.5782 4.15594 12.1307 5.14291C11.6833 6.12989 11.5735 7.23683 11.8186 8.29244C9.8609 8.19424 7.94576 7.68548 6.19745 6.79917C4.44915 5.91286 2.90676 4.66882 1.6704 3.1478C1.04073 4.2318 0.847872 5.51503 1.1311 6.73623C1.41433 7.95742 2.15234 9.02476 3.19488 9.72092C2.41123 9.69796 1.64465 9.48656 0.96 9.1046V9.167C0.960311 10.3039 1.35385 11.4056 2.07387 12.2854C2.79389 13.1651 3.79606 13.7688 4.9104 13.9939C4.18548 14.1916 3.42487 14.2205 2.68704 14.0784C3.00181 15.0567 3.61443 15.9122 4.43924 16.5253C5.26405 17.1384 6.25983 17.4784 7.28736 17.4979C6.26644 18.3004 5.09731 18.8937 3.84687 19.2439C2.59643 19.5941 1.28921 19.6943 0 19.5388C2.25183 20.9839 4.87192 21.7504 7.54752 21.7468" fill="#1DA1F2"/>
</svg>
